<?xml version="1.0" encoding="UTF-8" standalone="no"?>
<!DOCTYPE svg PUBLIC "-//W3C//DTD SVG 1.1//EN" "http://www.w3.org/Graphics/SVG/1.1/DTD/svg11.dtd">
<svg width="100%" height="100%" viewBox="0 0 194 189" version="1.1" xmlns="http://www.w3.org/2000/svg" xmlns:xlink="http://www.w3.org/1999/xlink" xml:space="preserve" xmlns:serif="http://www.serif.com/" style="fill-rule:evenodd;clip-rule:evenodd;stroke-linejoin:round;stroke-miterlimit:2;">
    <g transform="matrix(1,0,0,1,-560.7,-445.8)">
        <path d="M623.3,571.6L623.3,526.3L587.9,490.9L587.9,607L703.9,607L668.5,571.6L623.3,571.6Z" style="fill:rgb(55,226,132);fill-rule:nonzero;"/>
        <path d="M676.7,634.1L641.4,598.7L596.1,598.7L596.1,553.5L560.7,518.1L560.7,634.1L676.7,634.1Z" style="fill:rgb(0,24,39);fill-rule:nonzero;"/>
        <path d="M691.3,508.4L691.3,553.6L726.6,589L726.6,473L610.6,473L646,508.4L691.3,508.4Z" style="fill:rgb(55,226,132);fill-rule:nonzero;"/>
        <path d="M637.8,445.8L673.2,481.2L718.4,481.2L718.4,526.5L753.8,561.9L753.8,445.8L637.8,445.8Z" style="fill:rgb(0,24,39);fill-rule:nonzero;"/>
    </g>
</svg>
